<svg id="Calque_1" data-name="Calque 1" xmlns="http://www.w3.org/2000/svg" xmlns:xlink="http://www.w3.org/1999/xlink" viewBox="0 0 267 267"><defs><style>.cls-1{fill:#f4f4f4;}.cls-2{fill:url(#Dégradé_sans_nom_4);}.cls-3{fill:url(#Dégradé_sans_nom_4-2);}.cls-4{fill:url(#Dégradé_sans_nom_4-3);}.cls-5{fill:url(#Dégradé_sans_nom_4-4);}</style><linearGradient id="Dégradé_sans_nom_4" x1="652.18" y1="23.99" x2="660.55" y2="126.29" gradientTransform="matrix(1, 0, 0, -1, -258.73, 544.87)" gradientUnits="userSpaceOnUse"><stop offset="0" stop-color="#904c97"/><stop offset="1" stop-color="#5ec4ee"/></linearGradient><linearGradient id="Dégradé_sans_nom_4-2" x1="575.45" y1="30.27" x2="583.82" y2="132.56" xlink:href="#Dégradé_sans_nom_4"/><linearGradient id="Dégradé_sans_nom_4-3" x1="729.38" y1="17.67" x2="737.75" y2="119.97" xlink:href="#Dégradé_sans_nom_4"/><linearGradient id="Dégradé_sans_nom_4-4" x1="605.52" y1="172.2" x2="711.48" y2="172.2" xlink:href="#Dégradé_sans_nom_4"/></defs><title>icone couleur</title><rect class="cls-1" width="267" height="267" rx="32.24"/><path class="cls-2" d="M397.65,490.48c-5.57-.57-11.11-1-16.6-1.76a59.11,59.11,0,0,1-9.07-2.31,113,113,0,0,1-11.71-4,106.1,106.1,0,0,1-11-5.71,69,69,0,0,1-13.48-10.32,64.58,64.58,0,0,1-10.37-12.64c-.88-1.41.25-2.14.92-2.72a2.44,2.44,0,0,1,2.31.23,58.66,58.66,0,0,0,16.45,10.44c2.69,1.1,5.32,2.36,8.07,3.24,3.7,1.18,7.48,2.1,11.24,3,2.45.61,4.93,1.16,7.42,1.55,3.1.49,6.24.68,9.33,1.21,9.2,1.56,18.47.87,27.71.78,4.87,0,9.74-1,14.6-1.65,2.66-.34,5.32-.74,7.94-1.3a85.71,85.71,0,0,0,10.12-2.45,99.26,99.26,0,0,0,15.25-6.16A60.5,60.5,0,0,0,469,451.72c1.35-1.22,2.37-1.33,3.26-.47s.9,2,0,3.52a55.52,55.52,0,0,1-11.11,12.86,92.65,92.65,0,0,1-11.32,8.5,97.28,97.28,0,0,1-13.43,7,98.57,98.57,0,0,1-13,4.11,65.77,65.77,0,0,1-15,2.48C404.82,489.86,401.2,490.22,397.65,490.48Z" transform="translate(-266.29 -266.53)"/><path class="cls-3" d="M326,437.47a7.48,7.48,0,0,1,2.21.21,18.67,18.67,0,0,1,2.64.8,2.14,2.14,0,0,1,1.22,2.76,2.32,2.32,0,0,1-.22.41c-.73,1-2.33,2.19-3.44,2.08a8.88,8.88,0,0,0-9.93,7.69,9.82,9.82,0,0,0-.07,1.21c0,.49.12,1,.1,1.46-.06,1.79-.9,2.92-2.78,3a2.74,2.74,0,0,1-3.12-2.28,2,2,0,0,1,0-.35c-1-8.22,3.28-14.1,11-16.7A13.22,13.22,0,0,1,326,437.47Z" transform="translate(-266.29 -266.53)"/><path class="cls-4" d="M487.12,451a7.41,7.41,0,0,1-.21,2.2,18.8,18.8,0,0,1-.8,2.65,2.13,2.13,0,0,1-2.74,1.23,2.55,2.55,0,0,1-.43-.23c-1-.73-2.19-2.33-2.08-3.43a8.87,8.87,0,0,0-7.67-9.93,10.14,10.14,0,0,0-1.23-.07c-.49,0-1,.11-1.47.09-1.78-.06-2.91-.9-3-2.78a2.74,2.74,0,0,1,2.28-3.12,2,2,0,0,1,.35,0c8.22-1,14.09,3.28,16.69,11A11.62,11.62,0,0,1,487.12,451Z" transform="translate(-266.29 -266.53)"/><path class="cls-5" d="M407.37,435.77c-13,0-23.8-3.08-32.19-9.16v6.8H346.79V389.07h27.07l.94,1.13c9.73,11.76,16,17.3,31.22,17.3,9.05,0,15.13-3.36,15.13-8.37,0-5.3-4.46-8.7-13.25-10.11l-22-3.72c-12-1.94-21.21-6.11-27.47-12.4S349,358.36,349,348.39c0-11.75,4.41-21.61,12.73-28.5,8.16-6.75,19.74-10.32,33.5-10.32,11.85,0,21.68,2.6,29.32,7.74v-5.2H451.4v41.46H424.25l-.92-1.45c-4.8-7.56-11.69-15.29-26.43-15.29-10.38,0-15.64,3.44-15.64,10.23,0,4.88,2.57,8.55,15.13,10.62l17.6,3.05c25.72,4.38,38.76,16.86,38.76,37.07C452.75,421.22,435.37,435.77,407.37,435.77Z" transform="translate(-266.29 -266.53)"/></svg>